<svg width="2876" height="1366" xmlns="http://www.w3.org/2000/svg" xmlns:xlink="http://www.w3.org/1999/xlink" xml:space="preserve" overflow="hidden"><defs><clipPath id="clip0"><rect x="255" y="409" width="2876" height="1366"/></clipPath></defs><g clip-path="url(#clip0)" transform="translate(-255 -409)"><path d="M1119 1507 1119 1606" stroke="#000000" stroke-width="10.3125" stroke-miterlimit="8" fill="none" fill-rule="evenodd"/><path d="M829 1507 829 1606" stroke="#000000" stroke-width="10.3125" stroke-miterlimit="8" fill="none" fill-rule="evenodd"/><text font-family="Mangal Pro,Mangal Pro_MSFontService,sans-serif" font-weight="700" font-size="73" transform="matrix(1 0 0 1 2108.3 1577)">Nab_12</text><text font-family="Mangal Pro,Mangal Pro_MSFontService,sans-serif" font-weight="700" font-size="73" transform="matrix(1 0 0 1 1851.68 1577)">IGHA</text><text font-family="Mangal Pro,Mangal Pro_MSFontService,sans-serif" font-weight="700" font-size="73" transform="matrix(1 0 0 1 1172.64 1577)">Memory</text><text font-family="Mangal Pro,Mangal Pro_MSFontService,sans-serif" font-weight="700" font-size="73" transform="matrix(1 0 0 1 1466.09 1577)">-</text><text font-family="Mangal Pro,Mangal Pro_MSFontService,sans-serif" font-weight="700" font-size="73" transform="matrix(1 0 0 1 1504.48 1577)">B</text><text font-family="Mangal Pro,Mangal Pro_MSFontService,sans-serif" font-weight="700" font-size="73" transform="matrix(1 0 0 1 1552.6 1577)">-</text><text font-family="Mangal Pro,Mangal Pro_MSFontService,sans-serif" font-weight="700" font-size="73" transform="matrix(1 0 0 1 1590.99 1577)">Cells</text><text font-family="Mangal Pro,Mangal Pro_MSFontService,sans-serif" font-weight="700" font-size="73" transform="matrix(1 0 0 1 871.518 1577)">PBMC</text><text font-family="Mangal Pro,Mangal Pro_MSFontService,sans-serif" font-weight="700" font-size="73" transform="matrix(1 0 0 1 569.274 1577)">Ebola</text><text font-family="Mangal Pro,Mangal Pro_MSFontService,sans-serif" font-weight="700" font-size="73" transform="matrix(1 0 0 1 308.598 1577)">&gt;OAS</text><text font-family="Mangal Pro,Mangal Pro_MSFontService,sans-serif" font-weight="700" font-size="73" transform="matrix(1 0 0 1 306.438 1691)">DVNDRWTTNNYFYYDGR</text><path d="M535 1507 535 1606" stroke="#000000" stroke-width="10.3125" stroke-miterlimit="8" fill="none" fill-rule="evenodd"/><path d="M1811 1507 1811 1606" stroke="#000000" stroke-width="10.3125" stroke-miterlimit="8" fill="none" fill-rule="evenodd"/><path d="M2075 1507 2075 1606" stroke="#000000" stroke-width="10.3125" stroke-miterlimit="8" fill="none" fill-rule="evenodd"/><path d="M563 1525.5C563 1516.39 570.388 1509 579.5 1509L772.5 1509C781.612 1509 789 1516.39 789 1525.5L789 1591.5C789 1600.61 781.612 1608 772.5 1608L579.5 1608C570.388 1608 563 1600.61 563 1591.5Z" fill="#F4B183" fill-rule="evenodd" fill-opacity="0.25098"/><path d="M860 1525.5C860 1516.39 867.387 1509 876.5 1509L1073.5 1509C1082.61 1509 1090 1516.39 1090 1525.5L1090 1591.5C1090 1600.61 1082.61 1608 1073.5 1608L876.5 1608C867.387 1608 860 1600.61 860 1591.5Z" fill="#F4B183" fill-rule="evenodd" fill-opacity="0.25098"/><path d="M1152 1525.5C1152 1516.39 1159.39 1509 1168.5 1509L1751.5 1509C1760.61 1509 1768 1516.39 1768 1525.5L1768 1591.5C1768 1600.61 1760.61 1608 1751.5 1608L1168.5 1608C1159.39 1608 1152 1600.61 1152 1591.5Z" fill="#F4B183" fill-rule="evenodd" fill-opacity="0.25098"/><path d="M1835 1525.5C1835 1516.39 1842.39 1509 1851.5 1509L2034.5 1509C2043.61 1509 2051 1516.39 2051 1525.5L2051 1591.5C2051 1600.61 2043.61 1608 2034.5 1608L1851.5 1608C1842.39 1608 1835 1600.61 1835 1591.5Z" fill="#F4B183" fill-rule="evenodd" fill-opacity="0.25098"/><path d="M2108 1525.5C2108 1516.39 2115.39 1509 2124.5 1509L2369.5 1509C2378.61 1509 2386 1516.39 2386 1525.5L2386 1591.5C2386 1600.61 2378.61 1608 2369.5 1608L2124.5 1608C2115.39 1608 2108 1600.61 2108 1591.5Z" fill="#F4B183" fill-rule="evenodd" fill-opacity="0.25098"/><path d="M294 1635.5C294 1626.39 301.387 1619 310.5 1619L1170.5 1619C1179.61 1619 1187 1626.39 1187 1635.5L1187 1701.5C1187 1710.61 1179.61 1718 1170.5 1718L310.5 1718C301.387 1718 294 1710.61 294 1701.5Z" fill="#F4B183" fill-rule="evenodd" fill-opacity="0.25098"/><path d="M297 1525.5C297 1516.39 304.387 1509 313.5 1509L496.5 1509C505.612 1509 513 1516.39 513 1525.5L513 1591.5C513 1600.61 505.612 1608 496.5 1608L313.5 1608C304.387 1608 297 1600.61 297 1591.5Z" fill="#F4B183" fill-rule="evenodd" fill-opacity="0.25098"/><text font-family="Mangal Pro,Mangal Pro_MSFontService,sans-serif" font-weight="400" font-size="64" transform="matrix(1 0 0 1 2201.28 652)">Name of antibody database</text><text font-family="Mangal Pro,Mangal Pro_MSFontService,sans-serif" font-weight="400" font-size="64" transform="matrix(1 0 0 1 2640.55 801)">Disease name</text><text font-family="Mangal Pro,Mangal Pro_MSFontService,sans-serif" font-weight="400" font-size="64" transform="matrix(1 0 0 1 2641.7 950)">B</text><text font-family="Mangal Pro,Mangal Pro_MSFontService,sans-serif" font-weight="400" font-size="64" transform="matrix(1 0 0 1 2682.37 950)">-</text><text font-family="Mangal Pro,Mangal Pro_MSFontService,sans-serif" font-weight="400" font-size="64" transform="matrix(1 0 0 1 2715.03 950)">cells source</text><text font-family="Mangal Pro,Mangal Pro_MSFontService,sans-serif" font-weight="400" font-size="64" transform="matrix(1 0 0 1 2705.23 1099)">B</text><text font-family="Mangal Pro,Mangal Pro_MSFontService,sans-serif" font-weight="400" font-size="64" transform="matrix(1 0 0 1 2745.9 1099)">-</text><text font-family="Mangal Pro,Mangal Pro_MSFontService,sans-serif" font-weight="400" font-size="64" transform="matrix(1 0 0 1 2778.56 1099)">cells type</text><text font-family="Mangal Pro,Mangal Pro_MSFontService,sans-serif" font-weight="400" font-size="64" transform="matrix(1 0 0 1 2551.44 1248)">Antibody isotype</text><text font-family="Mangal Pro,Mangal Pro_MSFontService,sans-serif" font-weight="400" font-size="64" transform="matrix(1 0 0 1 2340.57 1398)">There are </text><text font-family="Mangal Pro,Mangal Pro_MSFontService,sans-serif" font-weight="700" font-size="64" transform="matrix(1 0 0 1 2652.85 1398)">12</text><text font-family="Mangal Pro,Mangal Pro_MSFontService,sans-serif" font-weight="400" font-size="64" transform="matrix(1 0 0 1 2747.96 1398)">antibodies </text><text font-family="Mangal Pro,Mangal Pro_MSFontService,sans-serif" font-weight="400" font-size="64" transform="matrix(1 0 0 1 2360.67 1475)">containing this peptide</text><text font-family="Mangal Pro,Mangal Pro_MSFontService,sans-serif" font-weight="400" font-size="64" transform="matrix(1 0 0 1 2529.09 1675)">Peptide sequence</text><path d="M0-1.14583 18.3333-1.14583 18.3333 1.14583 0 1.14583ZM25.2083-1.14583 43.5417-1.14583 43.5417 1.14583 25.2083 1.14583ZM50.4167-1.14583 68.75-1.14583 68.75 1.14583 50.4167 1.14583ZM75.625-1.14583 93.9583-1.14583 93.9583 1.14583 75.625 1.14583ZM100.833-1.14583 119.167-1.14583 119.167 1.14583 100.833 1.14583ZM126.042-1.14583 144.375-1.14583 144.375 1.14583 126.042 1.14583ZM151.25-1.14583 169.583-1.14583 169.583 1.14583 151.25 1.14583ZM176.458-1.14583 194.792-1.14583 194.792 1.14583 176.458 1.14583ZM201.667-1.14583 220-1.14583 220 1.14583 201.667 1.14583ZM226.875-1.14583 245.208-1.14583 245.208 1.14583 226.875 1.14583ZM252.083-1.14583 270.417-1.14583 270.417 1.14583 252.083 1.14583ZM277.292-1.14583 295.625-1.14583 295.625 1.14583 277.292 1.14583ZM302.5-1.14583 320.833-1.14583 320.833 1.14583 302.5 1.14583ZM327.708-1.14583 346.042-1.14583 346.042 1.14583 327.708 1.14583ZM352.917-1.14583 371.25-1.14583 371.25 1.14583 352.917 1.14583ZM378.125-1.14583 396.458-1.14583 396.458 1.14583 378.125 1.14583ZM403.333-1.14583 421.667-1.14583 421.667 1.14583 403.333 1.14583ZM428.542-1.14583 446.875-1.14583 446.875 1.14583 428.542 1.14583ZM453.75-1.14583 472.083-1.14583 472.083 1.14583 453.75 1.14583ZM478.958-1.14583 497.292-1.14583 497.292 1.14583 478.958 1.14583ZM504.167-1.14583 522.5-1.14583 522.5 1.14583 504.167 1.14583ZM529.375-1.14583 547.708-1.14583 547.708 1.14583 529.375 1.14583ZM554.583-1.14583 572.917-1.14583 572.917 1.14583 554.583 1.14583ZM579.792-1.14583 598.125-1.14583 598.125 1.14583 579.792 1.14583ZM605-1.14583 623.333-1.14583 623.333 1.14583 605 1.14583ZM630.208-1.14583 648.542-1.14583 648.542 1.14583 630.208 1.14583ZM655.417-1.14583 673.75-1.14583 673.75 1.14583 655.417 1.14583ZM680.625-1.14583 698.958-1.14583 698.958 1.14583 680.625 1.14583ZM705.833-1.14583 724.167-1.14583 724.167 1.14583 705.833 1.14583ZM731.042-1.14583 749.375-1.14583 749.375 1.14583 731.042 1.14583ZM756.25-1.14583 774.583-1.14583 774.583 1.14583 756.25 1.14583ZM781.458-1.14583 799.792-1.14583 799.792 1.14583 781.458 1.14583ZM806.667-1.14583 825-1.14583 825 1.14583 806.667 1.14583ZM831.875-1.14583 850.208-1.14583 850.208 1.14583 831.875 1.14583ZM857.083-1.14583 875.417-1.14583 875.417 1.14583 857.083 1.14583ZM882.292-1.14583 900.625-1.14583 900.625 1.14583 882.292 1.14583ZM907.5-1.14583 925.833-1.14583 925.833 1.14583 907.5 1.14583ZM932.708-1.14583 951.042-1.14583 951.042 1.14583 932.708 1.14583ZM957.917-1.14583 976.25-1.14583 976.25 1.14583 957.917 1.14583ZM983.125-1.14583 1001.46-1.14583 1001.46 1.14583 983.125 1.14583ZM1008.33-1.14583 1026.67-1.14583 1026.67 1.14583 1008.33 1.14583ZM1033.54-1.14583 1051.88-1.14583 1051.88 1.14583 1033.54 1.14583ZM1058.75-1.14583 1077.08-1.14583 1077.08 1.14583 1058.75 1.14583ZM1083.96-1.14583 1102.29-1.14583 1102.29 1.14583 1083.96 1.14583ZM1109.17-1.14583 1127.5-1.14583 1127.5 1.14583 1109.17 1.14583ZM1134.38-1.14583 1152.71-1.14583 1152.71 1.14583 1134.38 1.14583ZM1159.58-1.14583 1177.92-1.14583 1177.92 1.14583 1159.58 1.14583ZM1184.79-1.14583 1203.12-1.14583 1203.12 1.14583 1184.79 1.14583ZM1210-1.14583 1228.33-1.14583 1228.33 1.14583 1210 1.14583ZM1235.21-1.14583 1253.54-1.14583 1253.54 1.14583 1235.21 1.14583ZM1260.42-1.14583 1278.75-1.14583 1278.75 1.14583 1260.42 1.14583ZM1285.62-1.14583 1303.96-1.14583 1303.96 1.14583 1285.62 1.14583ZM1310.83-1.14583 1329.17-1.14583 1329.17 1.14583 1310.83 1.14583ZM1336.04-1.14583 1354.38-1.14583 1354.38 1.14583 1336.04 1.14583ZM1361.25-1.14583 1379.58-1.14583 1379.58 1.14583 1361.25 1.14583ZM1386.46-1.14583 1404.79-1.14583 1404.79 1.14583 1386.46 1.14583ZM1411.67-1.14583 1430-1.14583 1430 1.14583 1411.67 1.14583ZM1436.88-1.14583 1455.21-1.14583 1455.21 1.14583 1436.88 1.14583ZM1462.08-1.14583 1480.42-1.14583 1480.42 1.14583 1462.08 1.14583ZM1487.29-1.14583 1505.62-1.14583 1505.62 1.14583 1487.29 1.14583ZM1512.5-1.14583 1530.83-1.14583 1530.83 1.14583 1512.5 1.14583ZM1537.71-1.14583 1556.04-1.14583 1556.04 1.14583 1537.71 1.14583ZM1562.92-1.14583 1581.25-1.14583 1581.25 1.14583 1562.92 1.14583ZM1588.12-1.14583 1606.46-1.14583 1606.46 1.14583 1588.12 1.14583ZM1613.33-1.14583 1631.67-1.14583 1631.67 1.14583 1613.33 1.14583ZM1638.54-1.14583 1656.88-1.14583 1656.88 1.14583 1638.54 1.14583ZM1663.75-1.14583 1682.08-1.14583 1682.08 1.14583 1663.75 1.14583ZM1688.96-1.14583 1707.29-1.14583 1707.29 1.14583 1688.96 1.14583ZM1714.17-1.14583 1732.5-1.14583 1732.5 1.14583 1714.17 1.14583ZM1739.38-1.14583 1746.29-1.14583 1746.29 12.5688 1743.99 12.5688 1743.99 0 1745.14 1.14583 1739.38 1.14583ZM1746.29 19.4438 1746.29 37.7771 1743.99 37.7771 1743.99 19.4438ZM1746.29 44.6521 1746.29 62.9855 1743.99 62.9855 1743.99 44.6521ZM1746.29 69.8605 1746.29 88.1938 1743.99 88.1938 1743.99 69.8605ZM1746.29 95.0688 1746.29 113.402 1743.99 113.402 1743.99 95.0688ZM1746.29 120.277 1746.29 138.61 1743.99 138.61 1743.99 120.277ZM1746.29 145.485 1746.29 163.819 1743.99 163.819 1743.99 145.485ZM1746.29 170.694 1746.29 189.027 1743.99 189.027 1743.99 170.694ZM1746.29 195.902 1746.29 214.235 1743.99 214.235 1743.99 195.902ZM1746.29 221.11 1746.29 239.444 1743.99 239.444 1743.99 221.11ZM1746.29 246.319 1746.29 264.652 1743.99 264.652 1743.99 246.319ZM1746.29 271.527 1746.29 289.86 1743.99 289.86 1743.99 271.527ZM1746.29 296.735 1746.29 315.069 1743.99 315.069 1743.99 296.735ZM1746.29 321.944 1746.29 340.277 1743.99 340.277 1743.99 321.944ZM1746.29 347.152 1746.29 365.485 1743.99 365.485 1743.99 347.152ZM1746.29 372.36 1746.29 390.694 1743.99 390.694 1743.99 372.36ZM1746.29 397.569 1746.29 415.902 1743.99 415.902 1743.99 397.569ZM1746.29 422.777 1746.29 441.11 1743.99 441.11 1743.99 422.777ZM1746.29 447.985 1746.29 466.319 1743.99 466.319 1743.99 447.985ZM1746.29 473.194 1746.29 491.527 1743.99 491.527 1743.99 473.194ZM1746.29 498.402 1746.29 516.735 1743.99 516.735 1743.99 498.402ZM1746.29 523.61 1746.29 541.944 1743.99 541.944 1743.99 523.61ZM1746.29 548.819 1746.29 567.152 1743.99 567.152 1743.99 548.819ZM1746.29 574.027 1746.29 592.36 1743.99 592.36 1743.99 574.027ZM1746.29 599.235 1746.29 617.569 1743.99 617.569 1743.99 599.235ZM1746.29 624.444 1746.29 642.777 1743.99 642.777 1743.99 624.444ZM1746.29 649.652 1746.29 667.985 1743.99 667.985 1743.99 649.652ZM1746.29 674.86 1746.29 693.194 1743.99 693.194 1743.99 674.86ZM1746.29 700.069 1746.29 718.402 1743.99 718.402 1743.99 700.069ZM1746.29 725.277 1746.29 743.61 1743.99 743.61 1743.99 725.277ZM1746.29 750.485 1746.29 768.819 1743.99 768.819 1743.99 750.485ZM1746.29 775.694 1746.29 794.027 1743.99 794.027 1743.99 775.694ZM1746.29 800.902 1746.29 819.235 1743.99 819.235 1743.99 800.902ZM1746.29 826.11 1746.29 840.996 1743.99 840.996 1743.99 826.11ZM1758.89 836.413 1745.14 863.913 1731.39 836.413Z" transform="matrix(-1 1.22465e-16 1.22465e-16 1 2150.14 645)"/><path d="M0-1.14583 18.3333-1.14583 18.3333 1.14583 0 1.14583ZM25.2083-1.14583 43.5417-1.14583 43.5417 1.14583 25.2083 1.14583ZM50.4167-1.14583 68.75-1.14583 68.75 1.14583 50.4167 1.14583ZM75.625-1.14583 93.9583-1.14583 93.9583 1.14583 75.625 1.14583ZM100.833-1.14583 119.167-1.14583 119.167 1.14583 100.833 1.14583ZM126.042-1.14583 144.375-1.14583 144.375 1.14583 126.042 1.14583ZM151.25-1.14583 169.583-1.14583 169.583 1.14583 151.25 1.14583ZM176.458-1.14583 194.792-1.14583 194.792 1.14583 176.458 1.14583ZM201.667-1.14583 220-1.14583 220 1.14583 201.667 1.14583ZM226.875-1.14583 245.208-1.14583 245.208 1.14583 226.875 1.14583ZM252.083-1.14583 270.417-1.14583 270.417 1.14583 252.083 1.14583ZM277.292-1.14583 295.625-1.14583 295.625 1.14583 277.292 1.14583ZM302.5-1.14583 320.833-1.14583 320.833 1.14583 302.5 1.14583ZM327.708-1.14583 346.042-1.14583 346.042 1.14583 327.708 1.14583ZM352.917-1.14583 371.25-1.14583 371.25 1.14583 352.917 1.14583ZM378.125-1.14583 396.458-1.14583 396.458 1.14583 378.125 1.14583ZM403.333-1.14583 421.667-1.14583 421.667 1.14583 403.333 1.14583ZM428.542-1.14583 446.875-1.14583 446.875 1.14583 428.542 1.14583ZM453.75-1.14583 472.083-1.14583 472.083 1.14583 453.75 1.14583ZM478.958-1.14583 497.292-1.14583 497.292 1.14583 478.958 1.14583ZM504.167-1.14583 522.5-1.14583 522.5 1.14583 504.167 1.14583ZM529.375-1.14583 547.708-1.14583 547.708 1.14583 529.375 1.14583ZM554.583-1.14583 572.917-1.14583 572.917 1.14583 554.583 1.14583ZM579.792-1.14583 598.125-1.14583 598.125 1.14583 579.792 1.14583ZM605-1.14583 623.333-1.14583 623.333 1.14583 605 1.14583ZM630.208-1.14583 648.542-1.14583 648.542 1.14583 630.208 1.14583ZM655.417-1.14583 673.75-1.14583 673.75 1.14583 655.417 1.14583ZM680.625-1.14583 698.958-1.14583 698.958 1.14583 680.625 1.14583ZM705.833-1.14583 724.167-1.14583 724.167 1.14583 705.833 1.14583ZM731.042-1.14583 749.375-1.14583 749.375 1.14583 731.042 1.14583ZM756.25-1.14583 774.583-1.14583 774.583 1.14583 756.25 1.14583ZM781.458-1.14583 799.792-1.14583 799.792 1.14583 781.458 1.14583ZM806.667-1.14583 825-1.14583 825 1.14583 806.667 1.14583ZM831.875-1.14583 850.208-1.14583 850.208 1.14583 831.875 1.14583ZM857.083-1.14583 875.417-1.14583 875.417 1.14583 857.083 1.14583ZM882.292-1.14583 900.625-1.14583 900.625 1.14583 882.292 1.14583ZM907.5-1.14583 925.833-1.14583 925.833 1.14583 907.5 1.14583ZM932.708-1.14583 951.042-1.14583 951.042 1.14583 932.708 1.14583ZM957.917-1.14583 976.25-1.14583 976.25 1.14583 957.917 1.14583ZM983.125-1.14583 1001.46-1.14583 1001.46 1.14583 983.125 1.14583ZM1008.33-1.14583 1026.67-1.14583 1026.67 1.14583 1008.33 1.14583ZM1033.54-1.14583 1051.88-1.14583 1051.88 1.14583 1033.54 1.14583ZM1058.75-1.14583 1077.08-1.14583 1077.08 1.14583 1058.75 1.14583ZM1083.96-1.14583 1102.29-1.14583 1102.29 1.14583 1083.96 1.14583ZM1109.17-1.14583 1127.5-1.14583 1127.5 1.14583 1109.17 1.14583ZM1134.38-1.14583 1152.71-1.14583 1152.71 1.14583 1134.38 1.14583ZM1159.58-1.14583 1177.92-1.14583 1177.92 1.14583 1159.58 1.14583ZM1184.79-1.14583 1203.12-1.14583 1203.12 1.14583 1184.79 1.14583ZM1210-1.14583 1228.33-1.14583 1228.33 1.14583 1210 1.14583ZM1235.21-1.14583 1253.54-1.14583 1253.54 1.14583 1235.21 1.14583ZM1260.42-1.14583 1278.75-1.14583 1278.75 1.14583 1260.42 1.14583ZM1285.62-1.14583 1303.96-1.14583 1303.96 1.14583 1285.62 1.14583ZM1310.83-1.14583 1329.17-1.14583 1329.17 1.14583 1310.83 1.14583ZM1336.04-1.14583 1354.38-1.14583 1354.38 1.14583 1336.04 1.14583ZM1361.25-1.14583 1379.58-1.14583 1379.58 1.14583 1361.25 1.14583ZM1386.46-1.14583 1404.79-1.14583 1404.79 1.14583 1386.46 1.14583ZM1411.67-1.14583 1430-1.14583 1430 1.14583 1411.67 1.14583ZM1436.88-1.14583 1455.21-1.14583 1455.21 1.14583 1436.88 1.14583ZM1462.08-1.14583 1480.42-1.14583 1480.42 1.14583 1462.08 1.14583ZM1487.29-1.14583 1505.62-1.14583 1505.62 1.14583 1487.29 1.14583ZM1512.5-1.14583 1530.83-1.14583 1530.83 1.14583 1512.5 1.14583ZM1537.71-1.14583 1556.04-1.14583 1556.04 1.14583 1537.71 1.14583ZM1562.92-1.14583 1581.25-1.14583 1581.25 1.14583 1562.92 1.14583ZM1588.12-1.14583 1606.46-1.14583 1606.46 1.14583 1588.12 1.14583ZM1613.33-1.14583 1631.67-1.14583 1631.67 1.14583 1613.33 1.14583ZM1638.54-1.14583 1656.88-1.14583 1656.88 1.14583 1638.54 1.14583ZM1663.75-1.14583 1682.08-1.14583 1682.08 1.14583 1663.75 1.14583ZM1688.96-1.14583 1707.29-1.14583 1707.29 1.14583 1688.96 1.14583ZM1714.17-1.14583 1732.5-1.14583 1732.5 1.14583 1714.17 1.14583ZM1739.38-1.14583 1757.71-1.14583 1757.71 1.14583 1739.38 1.14583ZM1764.58-1.14583 1782.92-1.14583 1782.92 1.14583 1764.58 1.14583ZM1789.79-1.14583 1808.12-1.14583 1808.12 1.14583 1789.79 1.14583ZM1815-1.14583 1833.33-1.14583 1833.33 1.14583 1815 1.14583ZM1840.21-1.14583 1858.54-1.14583 1858.54 1.14583 1840.21 1.14583ZM1865.42-1.14583 1883.75-1.14583 1883.75 1.14583 1865.42 1.14583ZM1888.93 2.84239 1888.93 21.1757 1886.64 21.1757 1886.64 2.84239ZM1888.93 28.0507 1888.93 46.3841 1886.64 46.3841 1886.64 28.0507ZM1888.93 53.2591 1888.93 71.5924 1886.64 71.5924 1886.64 53.2591ZM1888.93 78.4674 1888.93 96.8007 1886.64 96.8007 1886.64 78.4674ZM1888.93 103.676 1888.93 122.009 1886.64 122.009 1886.64 103.676ZM1888.93 128.884 1888.93 147.217 1886.64 147.217 1886.64 128.884ZM1888.93 154.092 1888.93 172.426 1886.64 172.426 1886.64 154.092ZM1888.93 179.301 1888.93 197.634 1886.64 197.634 1886.64 179.301ZM1888.93 204.509 1888.93 222.842 1886.64 222.842 1886.64 204.509ZM1888.93 229.717 1888.93 248.051 1886.64 248.051 1886.64 229.717ZM1888.93 254.926 1888.93 273.259 1886.64 273.259 1886.64 254.926ZM1888.93 280.134 1888.93 298.467 1886.64 298.467 1886.64 280.134ZM1888.93 305.342 1888.93 323.676 1886.64 323.676 1886.64 305.342ZM1888.93 330.551 1888.93 348.884 1886.64 348.884 1886.64 330.551ZM1888.93 355.759 1888.93 374.092 1886.64 374.092 1886.64 355.759ZM1888.93 380.967 1888.93 399.301 1886.64 399.301 1886.64 380.967ZM1888.93 406.176 1888.93 424.509 1886.64 424.509 1886.64 406.176ZM1888.93 431.384 1888.93 449.717 1886.64 449.717 1886.64 431.384ZM1888.93 456.592 1888.93 474.926 1886.64 474.926 1886.64 456.592ZM1888.93 481.801 1888.93 500.134 1886.64 500.134 1886.64 481.801ZM1888.93 507.009 1888.93 525.342 1886.64 525.342 1886.64 507.009ZM1888.93 532.217 1888.93 550.551 1886.64 550.551 1886.64 532.217ZM1888.93 557.426 1888.93 575.759 1886.64 575.759 1886.64 557.426ZM1888.93 582.634 1888.93 600.967 1886.64 600.967 1886.64 582.634ZM1888.93 607.842 1888.93 626.176 1886.64 626.176 1886.64 607.842ZM1888.93 633.051 1888.93 651.384 1886.64 651.384 1886.64 633.051ZM1888.93 658.259 1888.93 676.592 1886.64 676.592 1886.64 658.259ZM1888.93 683.467 1888.93 691.803 1886.64 691.803 1886.64 683.467ZM1901.53 687.22 1887.78 714.72 1874.03 687.22Z" transform="matrix(-1 1.22465e-16 1.22465e-16 1 2563.78 794)"/><path d="M0-1.14583 18.3333-1.14583 18.3333 1.14583 0 1.14583ZM25.2083-1.14583 43.5417-1.14583 43.5417 1.14583 25.2083 1.14583ZM50.4167-1.14583 68.75-1.14583 68.75 1.14583 50.4167 1.14583ZM75.625-1.14583 93.9583-1.14583 93.9583 1.14583 75.625 1.14583ZM100.833-1.14583 119.167-1.14583 119.167 1.14583 100.833 1.14583ZM126.042-1.14583 144.375-1.14583 144.375 1.14583 126.042 1.14583ZM151.25-1.14583 169.583-1.14583 169.583 1.14583 151.25 1.14583ZM176.458-1.14583 194.792-1.14583 194.792 1.14583 176.458 1.14583ZM201.667-1.14583 220-1.14583 220 1.14583 201.667 1.14583ZM226.875-1.14583 245.208-1.14583 245.208 1.14583 226.875 1.14583ZM252.083-1.14583 270.417-1.14583 270.417 1.14583 252.083 1.14583ZM277.292-1.14583 295.625-1.14583 295.625 1.14583 277.292 1.14583ZM302.5-1.14583 320.833-1.14583 320.833 1.14583 302.5 1.14583ZM327.708-1.14583 346.042-1.14583 346.042 1.14583 327.708 1.14583ZM352.917-1.14583 371.25-1.14583 371.25 1.14583 352.917 1.14583ZM378.125-1.14583 396.458-1.14583 396.458 1.14583 378.125 1.14583ZM403.333-1.14583 421.667-1.14583 421.667 1.14583 403.333 1.14583ZM428.542-1.14583 446.875-1.14583 446.875 1.14583 428.542 1.14583ZM453.75-1.14583 472.083-1.14583 472.083 1.14583 453.75 1.14583ZM478.958-1.14583 497.292-1.14583 497.292 1.14583 478.958 1.14583ZM504.167-1.14583 522.5-1.14583 522.5 1.14583 504.167 1.14583ZM529.375-1.14583 547.708-1.14583 547.708 1.14583 529.375 1.14583ZM554.583-1.14583 572.917-1.14583 572.917 1.14583 554.583 1.14583ZM579.792-1.14583 598.125-1.14583 598.125 1.14583 579.792 1.14583ZM605-1.14583 623.333-1.14583 623.333 1.14583 605 1.14583ZM630.208-1.14583 648.542-1.14583 648.542 1.14583 630.208 1.14583ZM655.417-1.14583 673.75-1.14583 673.75 1.14583 655.417 1.14583ZM680.625-1.14583 698.958-1.14583 698.958 1.14583 680.625 1.14583ZM705.833-1.14583 724.167-1.14583 724.167 1.14583 705.833 1.14583ZM731.042-1.14583 749.375-1.14583 749.375 1.14583 731.042 1.14583ZM756.25-1.14583 774.583-1.14583 774.583 1.14583 756.25 1.14583ZM781.458-1.14583 799.792-1.14583 799.792 1.14583 781.458 1.14583ZM806.667-1.14583 825-1.14583 825 1.14583 806.667 1.14583ZM831.875-1.14583 850.208-1.14583 850.208 1.14583 831.875 1.14583ZM857.083-1.14583 875.417-1.14583 875.417 1.14583 857.083 1.14583ZM882.292-1.14583 900.625-1.14583 900.625 1.14583 882.292 1.14583ZM907.5-1.14583 925.833-1.14583 925.833 1.14583 907.5 1.14583ZM932.708-1.14583 951.042-1.14583 951.042 1.14583 932.708 1.14583ZM957.917-1.14583 976.25-1.14583 976.25 1.14583 957.917 1.14583ZM983.125-1.14583 1001.46-1.14583 1001.46 1.14583 983.125 1.14583ZM1008.33-1.14583 1026.67-1.14583 1026.67 1.14583 1008.33 1.14583ZM1033.54-1.14583 1051.88-1.14583 1051.88 1.14583 1033.54 1.14583ZM1058.75-1.14583 1077.08-1.14583 1077.08 1.14583 1058.75 1.14583ZM1083.96-1.14583 1102.29-1.14583 1102.29 1.14583 1083.96 1.14583ZM1109.17-1.14583 1127.5-1.14583 1127.5 1.14583 1109.17 1.14583ZM1134.38-1.14583 1152.71-1.14583 1152.71 1.14583 1134.38 1.14583ZM1159.58-1.14583 1177.92-1.14583 1177.92 1.14583 1159.58 1.14583ZM1184.79-1.14583 1203.12-1.14583 1203.12 1.14583 1184.79 1.14583ZM1210-1.14583 1228.33-1.14583 1228.33 1.14583 1210 1.14583ZM1235.21-1.14583 1253.54-1.14583 1253.54 1.14583 1235.21 1.14583ZM1260.42-1.14583 1278.75-1.14583 1278.75 1.14583 1260.42 1.14583ZM1285.62-1.14583 1303.96-1.14583 1303.96 1.14583 1285.62 1.14583ZM1310.83-1.14583 1329.17-1.14583 1329.17 1.14583 1310.83 1.14583ZM1336.04-1.14583 1354.38-1.14583 1354.38 1.14583 1336.04 1.14583ZM1361.25-1.14583 1379.58-1.14583 1379.58 1.14583 1361.25 1.14583ZM1386.46-1.14583 1404.79-1.14583 1404.79 1.14583 1386.46 1.14583ZM1411.67-1.14583 1430-1.14583 1430 1.14583 1411.67 1.14583ZM1436.88-1.14583 1455.21-1.14583 1455.21 1.14583 1436.88 1.14583ZM1462.08-1.14583 1480.42-1.14583 1480.42 1.14583 1462.08 1.14583ZM1487.29-1.14583 1505.62-1.14583 1505.62 1.14583 1487.29 1.14583ZM1512.5-1.14583 1530.83-1.14583 1530.83 1.14583 1512.5 1.14583ZM1537.71-1.14583 1556.04-1.14583 1556.04 1.14583 1537.71 1.14583ZM1562.92-1.14583 1581.25-1.14583 1581.25 1.14583 1562.92 1.14583ZM1588.12-1.14583 1589.94-1.14583 1589.94 17.6678 1587.64 17.6678 1587.64 0 1588.79 1.14583 1588.12 1.14583ZM1589.94 24.5428 1589.94 42.8762 1587.64 42.8762 1587.64 24.5428ZM1589.94 49.7512 1589.94 68.0845 1587.64 68.0845 1587.64 49.7512ZM1589.94 74.9595 1589.94 93.2928 1587.64 93.2928 1587.64 74.9595ZM1589.94 100.168 1589.94 118.501 1587.64 118.501 1587.64 100.168ZM1589.94 125.376 1589.94 143.71 1587.64 143.71 1587.64 125.376ZM1589.94 150.585 1589.94 168.918 1587.64 168.918 1587.64 150.585ZM1589.94 175.793 1589.94 194.126 1587.64 194.126 1587.64 175.793ZM1589.94 201.001 1589.94 219.335 1587.64 219.335 1587.64 201.001ZM1589.94 226.21 1589.94 244.543 1587.64 244.543 1587.64 226.21ZM1589.94 251.418 1589.94 269.751 1587.64 269.751 1587.64 251.418ZM1589.94 276.626 1589.94 294.96 1587.64 294.96 1587.64 276.626ZM1589.94 301.835 1589.94 320.168 1587.64 320.168 1587.64 301.835ZM1589.94 327.043 1589.94 345.376 1587.64 345.376 1587.64 327.043ZM1589.94 352.251 1589.94 370.585 1587.64 370.585 1587.64 352.251ZM1589.94 377.46 1589.94 395.793 1587.64 395.793 1587.64 377.46ZM1589.94 402.668 1589.94 421.001 1587.64 421.001 1587.64 402.668ZM1589.94 427.876 1589.94 446.21 1587.64 446.21 1587.64 427.876ZM1589.94 453.085 1589.94 471.418 1587.64 471.418 1587.64 453.085ZM1589.94 478.293 1589.94 496.626 1587.64 496.626 1587.64 478.293ZM1589.94 503.501 1589.94 521.835 1587.64 521.835 1587.64 503.501ZM1589.94 528.71 1589.94 542.609 1587.64 542.609 1587.64 528.71ZM1602.54 538.026 1588.79 565.526 1575.04 538.026Z" transform="matrix(-1 1.22465e-16 1.22465e-16 1 2563.79 943)"/><path d="M0-1.14583 18.3333-1.14583 18.3333 1.14583 0 1.14583ZM25.2083-1.14583 43.5417-1.14583 43.5417 1.14583 25.2083 1.14583ZM50.4167-1.14583 68.75-1.14583 68.75 1.14583 50.4167 1.14583ZM75.625-1.14583 93.9583-1.14583 93.9583 1.14583 75.625 1.14583ZM100.833-1.14583 119.167-1.14583 119.167 1.14583 100.833 1.14583ZM126.042-1.14583 144.375-1.14583 144.375 1.14583 126.042 1.14583ZM151.25-1.14583 169.583-1.14583 169.583 1.14583 151.25 1.14583ZM176.458-1.14583 194.792-1.14583 194.792 1.14583 176.458 1.14583ZM201.667-1.14583 220-1.14583 220 1.14583 201.667 1.14583ZM226.875-1.14583 245.208-1.14583 245.208 1.14583 226.875 1.14583ZM252.083-1.14583 270.417-1.14583 270.417 1.14583 252.083 1.14583ZM277.292-1.14583 295.625-1.14583 295.625 1.14583 277.292 1.14583ZM302.5-1.14583 320.833-1.14583 320.833 1.14583 302.5 1.14583ZM327.708-1.14583 346.042-1.14583 346.042 1.14583 327.708 1.14583ZM352.917-1.14583 371.25-1.14583 371.25 1.14583 352.917 1.14583ZM378.125-1.14583 396.458-1.14583 396.458 1.14583 378.125 1.14583ZM403.333-1.14583 421.667-1.14583 421.667 1.14583 403.333 1.14583ZM428.542-1.14583 446.875-1.14583 446.875 1.14583 428.542 1.14583ZM453.75-1.14583 472.083-1.14583 472.083 1.14583 453.75 1.14583ZM478.958-1.14583 497.292-1.14583 497.292 1.14583 478.958 1.14583ZM504.167-1.14583 522.5-1.14583 522.5 1.14583 504.167 1.14583ZM529.375-1.14583 547.708-1.14583 547.708 1.14583 529.375 1.14583ZM554.583-1.14583 572.917-1.14583 572.917 1.14583 554.583 1.14583ZM579.792-1.14583 598.125-1.14583 598.125 1.14583 579.792 1.14583ZM605-1.14583 623.333-1.14583 623.333 1.14583 605 1.14583ZM630.208-1.14583 648.542-1.14583 648.542 1.14583 630.208 1.14583ZM655.417-1.14583 673.75-1.14583 673.75 1.14583 655.417 1.14583ZM680.625-1.14583 698.958-1.14583 698.958 1.14583 680.625 1.14583ZM705.833-1.14583 724.167-1.14583 724.167 1.14583 705.833 1.14583ZM731.042-1.14583 749.375-1.14583 749.375 1.14583 731.042 1.14583ZM756.25-1.14583 774.583-1.14583 774.583 1.14583 756.25 1.14583ZM781.458-1.14583 799.792-1.14583 799.792 1.14583 781.458 1.14583ZM806.667-1.14583 825-1.14583 825 1.14583 806.667 1.14583ZM831.875-1.14583 850.208-1.14583 850.208 1.14583 831.875 1.14583ZM857.083-1.14583 875.417-1.14583 875.417 1.14583 857.083 1.14583ZM882.292-1.14583 900.625-1.14583 900.625 1.14583 882.292 1.14583ZM907.5-1.14583 925.833-1.14583 925.833 1.14583 907.5 1.14583ZM932.708-1.14583 951.042-1.14583 951.042 1.14583 932.708 1.14583ZM957.917-1.14583 976.25-1.14583 976.25 1.14583 957.917 1.14583ZM983.125-1.14583 1001.46-1.14583 1001.46 1.14583 983.125 1.14583ZM1008.33-1.14583 1026.67-1.14583 1026.67 1.14583 1008.33 1.14583ZM1033.54-1.14583 1051.88-1.14583 1051.88 1.14583 1033.54 1.14583ZM1058.75-1.14583 1077.08-1.14583 1077.08 1.14583 1058.75 1.14583ZM1083.96-1.14583 1102.29-1.14583 1102.29 1.14583 1083.96 1.14583ZM1109.17-1.14583 1127.5-1.14583 1127.5 1.14583 1109.17 1.14583ZM1134.38-1.14583 1152.71-1.14583 1152.71 1.14583 1134.38 1.14583ZM1159.58-1.14583 1163.07-1.14583 1163.07 15.9951 1160.78 15.9951 1160.78 0 1161.92 1.14583 1159.58 1.14583ZM1163.07 22.8701 1163.07 41.2034 1160.78 41.2034 1160.78 22.8701ZM1163.07 48.0784 1163.07 66.4118 1160.78 66.4118 1160.78 48.0784ZM1163.07 73.2868 1163.07 91.6201 1160.78 91.6201 1160.78 73.2868ZM1163.07 98.4951 1163.07 116.828 1160.78 116.828 1160.78 98.4951ZM1163.07 123.703 1163.07 142.037 1160.78 142.037 1160.78 123.703ZM1163.07 148.912 1163.07 167.245 1160.78 167.245 1160.78 148.912ZM1163.07 174.12 1163.07 192.453 1160.78 192.453 1160.78 174.12ZM1163.07 199.328 1163.07 217.662 1160.78 217.662 1160.78 199.328ZM1163.07 224.537 1163.07 242.87 1160.78 242.87 1160.78 224.537ZM1163.07 249.745 1163.07 268.078 1160.78 268.078 1160.78 249.745ZM1163.07 274.953 1163.07 293.287 1160.78 293.287 1160.78 274.953ZM1163.07 300.162 1163.07 318.495 1160.78 318.495 1160.78 300.162ZM1163.07 325.37 1163.07 343.703 1160.78 343.703 1160.78 325.37ZM1163.07 350.578 1163.07 368.912 1160.78 368.912 1160.78 350.578ZM1163.07 375.787 1163.07 393.416 1160.78 393.416 1160.78 375.787ZM1175.67 388.832 1161.92 416.332 1148.17 388.832Z" transform="matrix(-1 1.22465e-16 1.22465e-16 1 2621.92 1092)"/><path d="M0-1.14583 18.3333-1.14583 18.3333 1.14583 0 1.14583ZM25.2083-1.14583 43.5417-1.14583 43.5417 1.14583 25.2083 1.14583ZM50.4167-1.14583 68.75-1.14583 68.75 1.14583 50.4167 1.14583ZM75.625-1.14583 93.9583-1.14583 93.9583 1.14583 75.625 1.14583ZM100.833-1.14583 119.167-1.14583 119.167 1.14583 100.833 1.14583ZM126.042-1.14583 144.375-1.14583 144.375 1.14583 126.042 1.14583ZM151.25-1.14583 169.583-1.14583 169.583 1.14583 151.25 1.14583ZM176.458-1.14583 194.792-1.14583 194.792 1.14583 176.458 1.14583ZM201.667-1.14583 220-1.14583 220 1.14583 201.667 1.14583ZM226.875-1.14583 245.208-1.14583 245.208 1.14583 226.875 1.14583ZM252.083-1.14583 270.417-1.14583 270.417 1.14583 252.083 1.14583ZM277.292-1.14583 295.625-1.14583 295.625 1.14583 277.292 1.14583ZM302.5-1.14583 320.833-1.14583 320.833 1.14583 302.5 1.14583ZM327.708-1.14583 346.042-1.14583 346.042 1.14583 327.708 1.14583ZM352.917-1.14583 371.25-1.14583 371.25 1.14583 352.917 1.14583ZM378.125-1.14583 396.458-1.14583 396.458 1.14583 378.125 1.14583ZM403.333-1.14583 421.667-1.14583 421.667 1.14583 403.333 1.14583ZM428.542-1.14583 446.875-1.14583 446.875 1.14583 428.542 1.14583ZM453.75-1.14583 472.083-1.14583 472.083 1.14583 453.75 1.14583ZM478.958-1.14583 497.292-1.14583 497.292 1.14583 478.958 1.14583ZM504.167-1.14583 522.5-1.14583 522.5 1.14583 504.167 1.14583ZM529.375-1.14583 546.163-1.14583 546.163 2.69117 543.871 2.69117 543.871 0 545.017 1.14583 529.375 1.14583ZM546.163 9.56617 546.163 27.8995 543.871 27.8995 543.871 9.56617ZM546.163 34.7745 546.163 53.1078 543.871 53.1078 543.871 34.7745ZM546.163 59.9828 546.163 78.3162 543.871 78.3162 543.871 59.9828ZM546.163 85.1912 546.163 103.525 543.871 103.525 543.871 85.1912ZM546.163 110.4 546.163 128.733 543.871 128.733 543.871 110.4ZM546.163 135.608 546.163 153.941 543.871 153.941 543.871 135.608ZM546.163 160.816 546.163 179.15 543.871 179.15 543.871 160.816ZM546.163 186.025 546.163 204.358 543.871 204.358 543.871 186.025ZM546.163 211.233 546.163 229.566 543.871 229.566 543.871 211.233ZM546.163 236.441 546.163 244.222 543.871 244.222 543.871 236.441ZM558.767 239.639 545.017 267.139 531.267 239.639Z" transform="matrix(-1 1.22465e-16 1.22465e-16 1 2488.02 1241)"/><path d="M0-1.14583 18.3333-1.14583 18.3333 1.14583 0 1.14583ZM25.2083-1.14583 34.1094-1.14583 34.1094 10.5781 31.8177 10.5781 31.8177 0 32.9636 1.14583 25.2083 1.14583ZM34.1094 17.4531 34.1094 35.7864 31.8177 35.7864 31.8177 17.4531ZM34.1094 42.6614 34.1094 56.1527 31.8177 56.1527 31.8177 42.6614ZM46.7136 51.5694 32.9636 79.0694 19.2136 51.5694Z" transform="matrix(-1 1.22465e-16 1.22465e-16 1 2279.96 1429)"/><path d="M0 1.14583-18.3333 1.14583-18.3333-1.14583 0-1.14583ZM-25.2083 1.14583-43.5417 1.14583-43.5417-1.14583-25.2083-1.14583ZM-48.3542 0.916667-48.3542 19.25-50.6458 19.25-50.6458 0.916667ZM-48.3542 26.125-48.3542 44.4583-50.6458 44.4583-50.6458 26.125ZM-48.3542 51.3333-48.3542 69.6667-50.6458 69.6667-50.6458 51.3333ZM-48.3542 76.5417-48.3542 94.875-50.6458 94.875-50.6458 76.5417ZM-48.3542 101.75-48.3542 120.083-50.6458 120.083-50.6458 101.75ZM-48.3542 126.958-48.3542 145.292-50.6458 145.292-50.6458 126.958ZM-48.3542 152.167-48.3542 170.5-50.6458 170.5-50.6458 152.167ZM-48.3542 177.375-48.3542 195.708-50.6458 195.708-50.6458 177.375ZM-48.3542 202.583-48.3542 220.917-50.6458 220.917-50.6458 202.583ZM-48.3542 227.792-48.3542 246.125-50.6458 246.125-50.6458 227.792ZM-48.3542 253-48.3542 271.333-50.6458 271.333-50.6458 253ZM-48.3542 278.208-48.3542 296.542-50.6458 296.542-50.6458 278.208ZM-48.3542 303.417-48.3542 321.75-50.6458 321.75-50.6458 303.417ZM-48.3542 328.625-48.3542 346.958-50.6458 346.958-50.6458 328.625ZM-48.3542 353.833-48.3542 372.167-50.6458 372.167-50.6458 353.833ZM-48.3542 379.042-48.3542 397.375-50.6458 397.375-50.6458 379.042ZM-48.3542 404.25-48.3542 422.583-50.6458 422.583-50.6458 404.25ZM-48.3542 429.458-48.3542 447.792-50.6458 447.792-50.6458 429.458ZM-48.3542 454.667-48.3542 473-50.6458 473-50.6458 454.667ZM-48.3542 479.875-48.3542 498.208-50.6458 498.208-50.6458 479.875ZM-48.3542 505.083-48.3542 523.417-50.6458 523.417-50.6458 505.083ZM-48.3542 530.292-48.3542 548.625-50.6458 548.625-50.6458 530.292ZM-48.3542 555.5-48.3542 573.833-50.6458 573.833-50.6458 555.5ZM-48.3542 580.708-48.3542 599.042-50.6458 599.042-50.6458 580.708ZM-48.3542 605.917-48.3542 624.25-50.6458 624.25-50.6458 605.917ZM-48.3542 631.125-48.3542 649.458-50.6458 649.458-50.6458 631.125ZM-48.3542 656.333-48.3542 674.667-50.6458 674.667-50.6458 656.333ZM-48.3542 681.542-48.3542 699.875-50.6458 699.875-50.6458 681.542ZM-48.3542 706.75-48.3542 725.083-50.6458 725.083-50.6458 706.75ZM-48.3542 731.958-48.3542 750.292-50.6458 750.292-50.6458 731.958ZM-48.3542 757.167-48.3542 775.5-50.6458 775.5-50.6458 757.167ZM-48.3542 782.375-48.3542 800.708-50.6458 800.708-50.6458 782.375ZM-48.3542 807.583-48.3542 825.917-50.6458 825.917-50.6458 807.583ZM-48.3542 832.792-48.3542 851.125-50.6458 851.125-50.6458 832.792ZM-48.3542 858-48.3542 876.333-50.6458 876.333-50.6458 858ZM-48.3542 883.208-48.3542 901.542-50.6458 901.542-50.6458 883.208ZM-48.3542 908.417-48.3542 926.75-50.6458 926.75-50.6458 908.417ZM-48.3542 933.625-48.3542 951.958-50.6458 951.958-50.6458 933.625ZM-48.3542 958.833-48.3542 977.167-50.6458 977.167-50.6458 958.833ZM-48.3542 984.042-48.3542 1002.38-50.6458 1002.38-50.6458 984.042ZM-48.3542 1009.25-48.3542 1027.58-50.6458 1027.58-50.6458 1009.25ZM-48.3542 1034.46-48.3542 1052.79-50.6458 1052.79-50.6458 1034.46ZM-48.3542 1059.67-48.3542 1078-50.6458 1078-50.6458 1059.67ZM-48.3542 1084.88-48.3542 1103.21-50.6458 1103.21-50.6458 1084.88ZM-48.3542 1110.08-48.3542 1128.42-50.6458 1128.42-50.6458 1110.08ZM-48.3542 1135.29-48.3542 1153.62-50.6458 1153.62-50.6458 1135.29ZM-48.3542 1160.5-48.3542 1178.83-50.6458 1178.83-50.6458 1160.5ZM-48.3542 1185.71-48.3542 1204.04-50.6458 1204.04-50.6458 1185.71ZM-48.3542 1210.92-48.3542 1229.25-50.6458 1229.25-50.6458 1210.92ZM-48.3542 1236.12-48.3542 1254.46-50.6458 1254.46-50.6458 1236.12ZM-48.3542 1261.33-48.3542 1279.67-50.6458 1279.67-50.6458 1261.33ZM-48.3542 1286.54-48.3542 1304.88-50.6458 1304.88-50.6458 1286.54ZM-48.3542 1311.75-48.3542 1330.08-50.6458 1330.08-50.6458 1311.75ZM-48.3542 1336.96-48.3542 1355.29-50.6458 1355.29-50.6458 1336.96ZM-48.3542 1362.17-48.3542 1380.5-50.6458 1380.5-50.6458 1362.17ZM-48.3542 1387.38-48.3542 1405.71-50.6458 1405.71-50.6458 1387.38ZM-48.3542 1412.58-48.3542 1430.92-50.6458 1430.92-50.6458 1412.58ZM-48.3542 1437.79-48.3542 1456.12-50.6458 1456.12-50.6458 1437.79ZM-48.3542 1463-48.3542 1481.33-50.6458 1481.33-50.6458 1463ZM-48.3542 1488.21-48.3542 1506.54-50.6458 1506.54-50.6458 1488.21ZM-48.3542 1513.42-48.3542 1531.75-50.6458 1531.75-50.6458 1513.42ZM-48.3542 1538.62-48.3542 1556.96-50.6458 1556.96-50.6458 1538.62ZM-48.3542 1563.83-48.3542 1582.17-50.6458 1582.17-50.6458 1563.83ZM-48.3542 1589.04-48.3542 1607.38-50.6458 1607.38-50.6458 1589.04ZM-48.3542 1614.25-48.3542 1632.58-50.6458 1632.58-50.6458 1614.25ZM-48.3542 1639.46-48.3542 1657.79-50.6458 1657.79-50.6458 1639.46ZM-48.3542 1664.67-48.3542 1683-50.6458 1683-50.6458 1664.67ZM-48.3542 1689.88-48.3542 1708.21-50.6458 1708.21-50.6458 1689.88ZM-48.3542 1715.08-48.3542 1733.42-50.6458 1733.42-50.6458 1715.08ZM-48.3542 1740.29-48.3542 1758.62-50.6458 1758.62-50.6458 1740.29ZM-48.3542 1765.5-48.3542 1783.83-50.6458 1783.83-50.6458 1765.5ZM-48.3542 1790.71-48.3542 1809.04-50.6458 1809.04-50.6458 1790.71ZM-48.3542 1815.92-48.3542 1834.25-50.6458 1834.25-50.6458 1815.92ZM-48.3542 1841.12-48.3542 1859.46-50.6458 1859.46-50.6458 1841.12ZM-48.3542 1866.33-48.3542 1884.67-50.6458 1884.67-50.6458 1866.33ZM-48.3542 1891.54-48.3542 1909.88-50.6458 1909.88-50.6458 1891.54ZM-48.3542 1916.75-48.3542 1935.08-50.6458 1935.08-50.6458 1916.75ZM-48.3542 1941.96-48.3542 1960.29-50.6458 1960.29-50.6458 1941.96ZM-48.3542 1967.17-48.3542 1985.5-50.6458 1985.5-50.6458 1967.17ZM-48.3542 1992.38-48.3542 2010.71-50.6458 2010.71-50.6458 1992.38ZM-48.3542 2017.58-48.3542 2031.15-49.5 2030.01-44.7366 2030.01-44.7366 2032.3-50.6458 2032.3-50.6458 2017.58ZM-37.8616 2030.01-19.5282 2030.01-19.5282 2032.3-37.8616 2032.3ZM-21.4626 2017.4 6.03737 2031.15-21.4626 2044.9Z" transform="matrix(-6.12323e-17 -1 -1 6.12323e-17 2771.15 1724.04)"/><text font-family="Mangal Pro,Mangal Pro_MSFontService,sans-serif" font-weight="700" font-size="64" transform="matrix(1 0 0 1 708.033 475)">Output: FASTA file of peptide sequences and their information</text></g></svg>