<svg width="1815" height="1485" xmlns="http://www.w3.org/2000/svg" xmlns:xlink="http://www.w3.org/1999/xlink" xml:space="preserve" overflow="hidden"><defs><clipPath id="clip0"><rect x="678" y="290" width="1815" height="1485"/></clipPath></defs><g clip-path="url(#clip0)" transform="translate(-678 -290)"><path d="M678 384.119C678 332.138 720.138 290 772.118 290L2398.88 290C2450.86 290 2493 332.138 2493 384.119L2493 1680.88C2493 1732.86 2450.86 1775 2398.88 1775L772.118 1775C720.138 1775 678 1732.86 678 1680.88Z" fill="#FFFFFF" fill-rule="evenodd" fill-opacity="0.501961"/><path d="M793.5 468.501C793.5 444.2 813.2 424.5 837.501 424.5L1409.5 424.5C1433.8 424.5 1453.5 444.2 1453.5 468.501L1453.5 644.499C1453.5 668.8 1433.8 688.5 1409.5 688.5L837.501 688.5C813.2 688.5 793.5 668.8 793.5 644.499Z" stroke="#ED7D31" stroke-width="3.4375" stroke-linejoin="round" stroke-miterlimit="10" fill="none" fill-rule="evenodd"/><text fill="#ED7D31" font-family="Mangal Pro,Mangal Pro_MSFontService,sans-serif" font-weight="700" font-size="55" transform="matrix(1 0 0 1 890.508 529)">Existing antibody </text><text fill="#ED7D31" font-family="Mangal Pro,Mangal Pro_MSFontService,sans-serif" font-weight="700" font-size="55" transform="matrix(1 0 0 1 982.748 595)">databases</text><path d="M793.5 944.501C793.5 920.2 813.2 900.5 837.501 900.5L1409.5 900.5C1433.8 900.5 1453.5 920.2 1453.5 944.501L1453.5 1120.5C1453.5 1144.8 1433.8 1164.5 1409.5 1164.5L837.501 1164.5C813.2 1164.5 793.5 1144.8 793.5 1120.5Z" stroke="#ED7D31" stroke-width="3.4375" stroke-linejoin="round" stroke-miterlimit="10" fill="none" fill-rule="evenodd"/><text fill="#ED7D31" font-family="Mangal Pro,Mangal Pro_MSFontService,sans-serif" font-weight="700" font-size="55" transform="matrix(1 0 0 1 956.68 1005)">Heavy chain </text><text fill="#ED7D31" font-family="Mangal Pro,Mangal Pro_MSFontService,sans-serif" font-weight="700" font-size="55" transform="matrix(1 0 0 1 985.326 1071)">sequences</text><path d="M793.5 1420.5C793.5 1396.2 813.2 1376.5 837.501 1376.5L1409.5 1376.5C1433.8 1376.5 1453.5 1396.2 1453.5 1420.5L1453.5 1596.5C1453.5 1620.8 1433.8 1640.5 1409.5 1640.5L837.501 1640.5C813.2 1640.5 793.5 1620.8 793.5 1596.5Z" stroke="#ED7D31" stroke-width="3.4375" stroke-linejoin="round" stroke-miterlimit="10" fill="none" fill-rule="evenodd"/><text fill="#ED7D31" font-family="Mangal Pro,Mangal Pro_MSFontService,sans-serif" font-weight="700" font-size="55" transform="matrix(1 0 0 1 905.496 1514)">Tryptic peptides</text><path d="M1685.5 1420.5C1685.5 1396.2 1705.2 1376.5 1729.5 1376.5L2301.5 1376.5C2325.8 1376.5 2345.5 1396.2 2345.5 1420.5L2345.5 1596.5C2345.5 1620.8 2325.8 1640.5 2301.5 1640.5L1729.5 1640.5C1705.2 1640.5 1685.5 1620.8 1685.5 1596.5Z" stroke="#ED7D31" stroke-width="3.4375" stroke-linejoin="round" stroke-miterlimit="10" fill="none" fill-rule="evenodd"/><text fill="#ED7D31" font-family="Mangal Pro,Mangal Pro_MSFontService,sans-serif" font-weight="700" font-size="55" transform="matrix(1 0 0 1 1817.62 1481)">Filtered tryptic </text><text fill="#ED7D31" font-family="Mangal Pro,Mangal Pro_MSFontService,sans-serif" font-weight="700" font-size="55" transform="matrix(1 0 0 1 1898.68 1547)">peptides</text><path d="M1685.5 944.501C1685.5 920.2 1705.2 900.5 1729.5 900.5L2301.5 900.5C2325.8 900.5 2345.5 920.2 2345.5 944.501L2345.5 1120.5C2345.5 1144.8 2325.8 1164.5 2301.5 1164.5L1729.5 1164.5C1705.2 1164.5 1685.5 1144.8 1685.5 1120.5Z" stroke="#ED7D31" stroke-width="3.4375" stroke-linejoin="round" stroke-miterlimit="10" fill="#FBE5D6" fill-rule="evenodd"/><text fill="#ED7D31" font-family="Mangal Pro,Mangal Pro_MSFontService,sans-serif" font-weight="700" font-size="55" transform="matrix(1 0 0 1 1796.13 972)">Disease</text><text fill="#ED7D31" font-family="Mangal Pro,Mangal Pro_MSFontService,sans-serif" font-weight="700" font-size="55" transform="matrix(1 0 0 1 2001.81 972)">-</text><text fill="#ED7D31" font-family="Mangal Pro,Mangal Pro_MSFontService,sans-serif" font-weight="700" font-size="55" transform="matrix(1 0 0 1 2030.45 972)">specific </text><text fill="#ED7D31" font-family="Mangal Pro,Mangal Pro_MSFontService,sans-serif" font-weight="700" font-size="55" transform="matrix(1 0 0 1 1792.21 1038)">Antibody Tryptic </text><text fill="#ED7D31" font-family="Mangal Pro,Mangal Pro_MSFontService,sans-serif" font-weight="700" font-size="55" transform="matrix(1 0 0 1 1760.91 1104)">peptide Databases</text><path d="M1685.5 468.501C1685.5 444.2 1705.2 424.5 1729.5 424.5L2301.5 424.5C2325.8 424.5 2345.5 444.2 2345.5 468.501L2345.5 644.499C2345.5 668.8 2325.8 688.5 2301.5 688.5L1729.5 688.5C1705.2 688.5 1685.5 668.8 1685.5 644.499Z" stroke="#ED7D31" stroke-width="3.4375" stroke-linejoin="round" stroke-miterlimit="10" fill="none" fill-rule="evenodd"/><text fill="#ED7D31" font-family="Mangal Pro,Mangal Pro_MSFontService,sans-serif" font-weight="700" font-size="55" transform="matrix(1 0 0 1 1865.46 529)">Proteomics </text><text fill="#ED7D31" font-family="Mangal Pro,Mangal Pro_MSFontService,sans-serif" font-weight="700" font-size="55" transform="matrix(1 0 0 1 1790.41 595)">database search</text><path d="M1128.16 688 1128.16 874.373 1117.84 874.373 1117.84 688ZM1138.47 869.217 1123 900.155 1107.53 869.217Z" fill="#ED7D31"/><path d="M1128.16 1164 1128.16 1350.37 1117.84 1350.37 1117.84 1164ZM1138.47 1345.22 1123 1376.15 1107.53 1345.22Z" fill="#ED7D31"/><path d="M5.15625-8.77121e-06 5.15657 186.373-5.15593 186.373-5.15625 8.77121e-06ZM15.4691 181.217 0.000360892 212.155-15.4684 181.217Z" fill="#ED7D31" transform="matrix(1 0 0 -1 2015 1376.15)"/><path d="M5.15625-8.77119e-06 5.15657 186.374-5.15593 186.374-5.15625 8.77119e-06ZM15.4691 181.217 0.000360892 212.155-15.4684 181.217Z" fill="#ED7D31" transform="matrix(1 0 0 -1 2015 900.155)"/><path d="M1453 1502.84 1658.81 1502.84 1658.81 1513.16 1453 1513.16ZM1653.66 1492.53 1684.6 1508 1653.66 1523.47Z" fill="#ED7D31"/><text font-family="Mangal Pro,Mangal Pro_MSFontService,sans-serif" font-weight="700" font-size="55" transform="matrix(1 0 0 1 1156.4 813)">1. Download</text><text font-family="Mangal Pro,Mangal Pro_MSFontService,sans-serif" font-weight="700" font-size="55" transform="matrix(1 0 0 1 1159.42 1295)">2. Digest</text><text font-family="Mangal Pro,Mangal Pro_MSFontService,sans-serif" font-weight="700" font-size="55" transform="matrix(1 0 0 1 1465.77 1479)">3. Filter</text><text font-family="Mangal Pro,Mangal Pro_MSFontService,sans-serif" font-weight="700" font-size="55" transform="matrix(1 0 0 1 2051.02 1295)">4. Prepare DB</text><text font-family="Mangal Pro,Mangal Pro_MSFontService,sans-serif" font-weight="700" font-size="55" transform="matrix(1 0 0 1 2047.99 813)">5. Use</text></g></svg>