<svg width="3206" height="2167" xmlns="http://www.w3.org/2000/svg" xmlns:xlink="http://www.w3.org/1999/xlink" xml:space="preserve" overflow="hidden"><g transform="translate(-57 -234)"><path d="M57.0001 285.899C57.0001 257.236 80.2362 234 108.899 234L3180.1 234C3208.76 234 3232 257.236 3232 285.899L3232 2349.1C3232 2377.76 3208.76 2401 3180.1 2401L108.899 2401C80.2362 2401 57.0001 2377.76 57.0001 2349.1Z" fill="#FFFFFF" fill-rule="evenodd" fill-opacity="0.8"/><path d="M2155 301.5C2155 292.387 2162.39 285 2171.5 285L2632.5 285C2641.61 285 2649 292.387 2649 301.5L2649 367.5C2649 376.613 2641.61 384 2632.5 384L2171.5 384C2162.39 384 2155 376.613 2155 367.5Z" fill="#DBDBDB" fill-rule="evenodd"/><text font-family="Mangal Pro,Mangal Pro_MSFontService,sans-serif" font-weight="700" font-size="46" transform="matrix(1 0 0 1 2194.8 343)">Part1_Download.R</text><path d="M2155 917.334C2155 908.313 2162.31 901 2171.33 901L2632.67 901C2641.69 901 2649 908.313 2649 917.334L2649 982.666C2649 991.687 2641.69 999 2632.67 999L2171.33 999C2162.31 999 2155 991.687 2155 982.666Z" fill="#DBDBDB" fill-rule="evenodd"/><text font-family="Mangal Pro,Mangal Pro_MSFontService,sans-serif" font-weight="700" font-size="46" transform="matrix(1 0 0 1 2203.68 959)">Part2_Digestion.R</text><path d="M2155 1424.33C2155 1415.31 2162.31 1408 2171.33 1408L2632.67 1408C2641.69 1408 2649 1415.31 2649 1424.33L2649 1489.67C2649 1498.69 2641.69 1506 2632.67 1506L2171.33 1506C2162.31 1506 2155 1498.69 2155 1489.67Z" fill="#DBDBDB" fill-rule="evenodd"/><text font-family="Mangal Pro,Mangal Pro_MSFontService,sans-serif" font-weight="700" font-size="46" transform="matrix(1 0 0 1 2251.51 1465)">Part3_Filter.R</text><path d="M2155 1900.33C2155 1891.31 2162.31 1884 2171.33 1884L2632.67 1884C2641.69 1884 2649 1891.31 2649 1900.33L2649 1965.67C2649 1974.69 2641.69 1982 2632.67 1982L2171.33 1982C2162.31 1982 2155 1974.69 2155 1965.67Z" fill="#DBDBDB" fill-rule="evenodd"/><text font-family="Mangal Pro,Mangal Pro_MSFontService,sans-serif" font-weight="700" font-size="46" transform="matrix(1 0 0 1 2212.84 1942)">Part4_DB_prep.R</text><path d="M1334 301.5C1334 292.387 1341.39 285 1350.5 285L1811.5 285C1820.61 285 1828 292.387 1828 301.5L1828 367.5C1828 376.613 1820.61 384 1811.5 384L1350.5 384C1341.39 384 1334 376.613 1334 367.5Z" fill="#FBE5D6" fill-rule="evenodd"/><text font-family="Mangal Pro,Mangal Pro_MSFontService,sans-serif" font-weight="700" font-size="46" transform="matrix(1 0 0 1 1377.23 343)">bulk_download.sh</text><path d="M814 859.333C814 850.313 821.313 843 830.333 843L1811.67 843C1820.69 843 1828 850.313 1828 859.333L1828 924.666C1828 933.687 1820.69 941 1811.67 941L830.333 941C821.313 941 814 933.687 814 924.666Z" fill="#FBE5D6" fill-rule="evenodd"/><text font-family="Mangal Pro,Mangal Pro_MSFontService,sans-serif" font-weight="700" font-size="46" transform="matrix(1 0 0 1 857.566 901)">UniProt_TR_SP_Human_2024_07_25.fasta</text><path d="M814 978.334C814 969.313 821.313 962 830.333 962L1811.67 962C1820.69 962 1828 969.313 1828 978.334L1828 1043.67C1828 1052.69 1820.69 1060 1811.67 1060L830.333 1060C821.313 1060 814 1052.69 814 1043.67Z" fill="#FBE5D6" fill-rule="evenodd"/><text font-family="Mangal Pro,Mangal Pro_MSFontService,sans-serif" font-weight="700" font-size="46" transform="matrix(1 0 0 1 877.905 1020)">NCBI_RefSeq_Human_2024_07_25.fasta</text><path d="M114 1257.67C114 1242.94 125.94 1231 140.668 1231L606.332 1231C621.06 1231 633 1242.94 633 1257.67L633 1364.33C633 1379.06 621.06 1391 606.332 1391L140.668 1391C125.94 1391 114 1379.06 114 1364.33Z" fill="#E2F0D9" fill-rule="evenodd"/><text font-family="Mangal Pro,Mangal Pro_MSFontService,sans-serif" font-weight="700" font-size="46" transform="matrix(1 0 0 1 189.953 1289)">Tryptic peptides </text><text font-family="Mangal Pro,Mangal Pro_MSFontService,sans-serif" font-weight="700" font-size="46" transform="matrix(1 0 0 1 236.359 1347)">non</text><text font-family="Mangal Pro,Mangal Pro_MSFontService,sans-serif" font-weight="700" font-size="46" transform="matrix(1 0 0 1 317.713 1347)">-</text><text font-family="Mangal Pro,Mangal Pro_MSFontService,sans-serif" font-weight="700" font-size="46" transform="matrix(1 0 0 1 341.776 1347)">disease</text><path d="M1334 1278.33C1334 1269.31 1341.31 1262 1350.33 1262L1811.67 1262C1820.69 1262 1828 1269.31 1828 1278.33L1828 1343.67C1828 1352.69 1820.69 1360 1811.67 1360L1350.33 1360C1341.31 1360 1334 1352.69 1334 1343.67Z" fill="#DAE3F3" fill-rule="evenodd"/><text font-family="Mangal Pro,Mangal Pro_MSFontService,sans-serif" font-weight="700" font-size="46" transform="matrix(1 0 0 1 1375.22 1319)">OAS_Tryptic</text><text font-family="Mangal Pro,Mangal Pro_MSFontService,sans-serif" font-weight="700" font-size="46" transform="matrix(1 0 0 1 1649.08 1319)">/None</text><path d="M114 1879.67C114 1864.94 125.94 1853 140.668 1853L606.332 1853C621.06 1853 633 1864.94 633 1879.67L633 1986.33C633 2001.06 621.06 2013 606.332 2013L140.668 2013C125.94 2013 114 2001.06 114 1986.33Z" fill="#E2F0D9" fill-rule="evenodd"/><text font-family="Mangal Pro,Mangal Pro_MSFontService,sans-serif" font-weight="700" font-size="46" transform="matrix(1 0 0 1 208.573 1911)">Filtered tryptic </text><text font-family="Mangal Pro,Mangal Pro_MSFontService,sans-serif" font-weight="700" font-size="46" transform="matrix(1 0 0 1 276.177 1969)">peptides</text><path d="M2155 2235.33C2155 2226.31 2162.31 2219 2171.33 2219L2632.67 2219C2641.69 2219 2649 2226.31 2649 2235.33L2649 2300.67C2649 2309.69 2641.69 2317 2632.67 2317L2171.33 2317C2162.31 2317 2155 2309.69 2155 2300.67Z" fill="#DBDBDB" fill-rule="evenodd"/><text font-family="Mangal Pro,Mangal Pro_MSFontService,sans-serif" font-weight="700" font-size="46" transform="matrix(1 0 0 1 2205.39 2276)">DAT</text><text font-family="Mangal Pro,Mangal Pro_MSFontService,sans-serif" font-weight="700" font-size="46" transform="matrix(1 0 0 1 2297.63 2276)">-</text><text font-family="Mangal Pro,Mangal Pro_MSFontService,sans-serif" font-weight="700" font-size="46" transform="matrix(1 0 0 1 2321.7 2276)">DB web app</text><path d="M114 492.668C114 477.94 125.94 466 140.668 466L606.332 466C621.06 466 633 477.94 633 492.668L633 599.333C633 614.061 621.06 626 606.332 626L140.668 626C125.94 626 114 614.061 114 599.333Z" fill="#E2F0D9" fill-rule="evenodd"/><text font-family="Mangal Pro,Mangal Pro_MSFontService,sans-serif" font-weight="700" font-size="46" transform="matrix(1 0 0 1 271.88 524)">Antibody </text><text font-family="Mangal Pro,Mangal Pro_MSFontService,sans-serif" font-weight="700" font-size="46" transform="matrix(1 0 0 1 258.703 582)">sequences</text><path d="M114 663.5C114 654.387 121.388 647 130.5 647L616.5 647C625.612 647 633 654.387 633 663.5L633 729.5C633 738.612 625.612 746 616.5 746L130.5 746C121.388 746 114 738.612 114 729.5Z" fill="#E2F0D9" fill-rule="evenodd"/><text font-family="Mangal Pro,Mangal Pro_MSFontService,sans-serif" font-weight="700" font-size="46" transform="matrix(1 0 0 1 263.286 705)">Metadata</text><text font-family="Mangal Pro,Mangal Pro_MSFontService,sans-serif" font-weight="700" font-size="46" transform="matrix(1 0 0 1 3023.79 478)">File</text><path d="M1542 513.334C1542 504.313 1549.31 497 1558.33 497L1811.67 497C1820.69 497 1828 504.313 1828 513.334L1828 578.666C1828 587.687 1820.69 595 1811.67 595L1558.33 595C1549.31 595 1542 587.687 1542 578.666Z" fill="#DAE3F3" fill-rule="evenodd"/><text font-family="Mangal Pro,Mangal Pro_MSFontService,sans-serif" font-weight="700" font-size="46" transform="matrix(1 0 0 1 1591.74 555)">OAS_full</text><path d="M1321 663.5C1321 654.387 1328.39 647 1337.5 647L1811.5 647C1820.61 647 1828 654.387 1828 663.5L1828 729.5C1828 738.612 1820.61 746 1811.5 746L1337.5 746C1328.39 746 1321 738.612 1321 729.5Z" fill="#FBE5D6" fill-rule="evenodd"/><text font-family="Mangal Pro,Mangal Pro_MSFontService,sans-serif" font-weight="700" font-size="46" transform="matrix(1 0 0 1 1362.42 705)">OAS_metadata.csv</text><path d="M114 1466.67C114 1451.94 125.94 1440 140.668 1440L606.332 1440C621.06 1440 633 1451.94 633 1466.67L633 1573.33C633 1588.06 621.06 1600 606.332 1600L140.668 1600C125.94 1600 114 1588.06 114 1573.33Z" fill="#E2F0D9" fill-rule="evenodd"/><text font-family="Mangal Pro,Mangal Pro_MSFontService,sans-serif" font-weight="700" font-size="46" transform="matrix(1 0 0 1 189.953 1498)">Tryptic peptides </text><text font-family="Mangal Pro,Mangal Pro_MSFontService,sans-serif" font-weight="700" font-size="46" transform="matrix(1 0 0 1 277.609 1556)">diseases</text><path d="M918 1429.5C918 1420.39 925.388 1413 934.5 1413L1811.5 1413C1820.61 1413 1828 1420.39 1828 1429.5L1828 1495.5C1828 1504.61 1820.61 1512 1811.5 1512L934.5 1512C925.388 1512 918 1504.61 918 1495.5Z" fill="#DAE3F3" fill-rule="evenodd"/><text font-family="Mangal Pro,Mangal Pro_MSFontService,sans-serif" font-weight="700" font-size="46" transform="matrix(1 0 0 1 1023.83 1471)">OAS_Tryptic</text><text font-family="Mangal Pro,Mangal Pro_MSFontService,sans-serif" font-weight="700" font-size="46" transform="matrix(1 0 0 1 1297.69 1471)">/</text><text font-family="Mangal Pro,Mangal Pro_MSFontService,sans-serif" font-weight="700" font-size="46" transform="matrix(1 0 0 1 1320.6 1471)">Disease_index_ab</text><path d="M918 1544.33C918 1535.31 925.313 1528 934.333 1528L1811.67 1528C1820.69 1528 1828 1535.31 1828 1544.33L1828 1609.67C1828 1618.69 1820.69 1626 1811.67 1626L934.333 1626C925.313 1626 918 1618.69 918 1609.67Z" fill="#DAE3F3" fill-rule="evenodd"/><text font-family="Mangal Pro,Mangal Pro_MSFontService,sans-serif" font-weight="700" font-size="46" transform="matrix(1 0 0 1 956.227 1585)">OAS_Tryptic</text><text font-family="Mangal Pro,Mangal Pro_MSFontService,sans-serif" font-weight="700" font-size="46" transform="matrix(1 0 0 1 1230.08 1585)">/</text><text font-family="Mangal Pro,Mangal Pro_MSFontService,sans-serif" font-weight="700" font-size="46" transform="matrix(1 0 0 1 1253 1585)">Disease_index_filename</text><path d="M1282 2235.33C1282 2226.31 1289.31 2219 1298.33 2219L1811.67 2219C1820.69 2219 1828 2226.31 1828 2235.33L1828 2300.67C1828 2309.69 1820.69 2317 1811.67 2317L1298.33 2317C1289.31 2317 1282 2309.69 1282 2300.67Z" fill="#DAE3F3" fill-rule="evenodd"/><text font-family="Mangal Pro,Mangal Pro_MSFontService,sans-serif" font-weight="700" font-size="46" transform="matrix(1 0 0 1 1326.03 2276)">OAS_pepDB</text><text font-family="Mangal Pro,Mangal Pro_MSFontService,sans-serif" font-weight="700" font-size="46" transform="matrix(1 0 0 1 1590.15 2276)">/</text><text font-family="Mangal Pro,Mangal Pro_MSFontService,sans-serif" font-weight="700" font-size="46" transform="matrix(1 0 0 1 1613.07 2276)">DuckDB</text><path d="M1038 1900.33C1038 1891.31 1045.31 1884 1054.33 1884L1811.67 1884C1820.69 1884 1828 1891.31 1828 1900.33L1828 1965.67C1828 1974.69 1820.69 1982 1811.67 1982L1054.33 1982C1045.31 1982 1038 1974.69 1038 1965.67Z" fill="#DAE3F3" fill-rule="evenodd"/><text font-family="Mangal Pro,Mangal Pro_MSFontService,sans-serif" font-weight="700" font-size="46" transform="matrix(1 0 0 1 1083.5 1942)">OAS_Tryptic</text><text font-family="Mangal Pro,Mangal Pro_MSFontService,sans-serif" font-weight="700" font-size="46" transform="matrix(1 0 0 1 1357.36 1942)">/</text><text font-family="Mangal Pro,Mangal Pro_MSFontService,sans-serif" font-weight="700" font-size="46" transform="matrix(1 0 0 1 1380.28 1942)">Disease_index_ab</text><path d="M114 2214.67C114 2199.94 125.939 2188 140.667 2188L762.333 2188C777.061 2188 789 2199.94 789 2214.67L789 2321.33C789 2336.06 777.061 2348 762.333 2348L140.667 2348C125.939 2348 114 2336.06 114 2321.33Z" fill="#E2F0D9" fill-rule="evenodd"/><text font-family="Mangal Pro,Mangal Pro_MSFontService,sans-serif" font-weight="700" font-size="46" transform="matrix(1 0 0 1 161.332 2246)">Disease</text><text font-family="Mangal Pro,Mangal Pro_MSFontService,sans-serif" font-weight="700" font-size="46" transform="matrix(1 0 0 1 332.634 2246)">-</text><text font-family="Mangal Pro,Mangal Pro_MSFontService,sans-serif" font-weight="700" font-size="46" transform="matrix(1 0 0 1 356.696 2246)">specific antibody </text><text font-family="Mangal Pro,Mangal Pro_MSFontService,sans-serif" font-weight="700" font-size="46" transform="matrix(1 0 0 1 159.338 2304)">tryptic peptide databases</text><text font-family="Mangal Pro,Mangal Pro_MSFontService,sans-serif" font-weight="700" font-size="46" transform="matrix(1 0 0 1 3023.79 612)">Folder</text><text font-family="Mangal Pro,Mangal Pro_MSFontService,sans-serif" font-weight="700" font-size="46" transform="matrix(1 0 0 1 3023.79 746)">Info</text><path d="M114 301.5C114 292.387 121.388 285 130.5 285L616.5 285C625.612 285 633 292.387 633 301.5L633 367.5C633 376.613 625.612 384 616.5 384L130.5 384C121.388 384 114 376.613 114 367.5Z" fill="#E2F0D9" fill-rule="evenodd"/><text font-family="Mangal Pro,Mangal Pro_MSFontService,sans-serif" font-weight="700" font-size="46" transform="matrix(1 0 0 1 213.156 340)">Download link</text><path d="M633 335 1333.63 335.001" stroke="#000000" stroke-width="2.29167" stroke-miterlimit="8" stroke-dasharray="9.16667 6.875" fill="none" fill-rule="evenodd"/><path d="M633 546 1541.51 546" stroke="#000000" stroke-width="2.29167" stroke-miterlimit="8" stroke-dasharray="9.16667 6.875" fill="none" fill-rule="evenodd"/><path d="M0 0 687.641 0.213287" stroke="#000000" stroke-width="2.29167" stroke-miterlimit="8" stroke-dasharray="9.16667 6.875" fill="none" fill-rule="evenodd" transform="matrix(1 0 0 -1 633 697.213)"/><path d="M911 1418.11C911 1408.66 918.659 1401 928.108 1401L1815.89 1401C1825.34 1401 1833 1408.66 1833 1418.11L1833 1622.89C1833 1632.34 1825.34 1640 1815.89 1640L928.108 1640C918.659 1640 911 1632.34 911 1622.89Z" stroke="#000000" stroke-width="2.29167" stroke-miterlimit="8" stroke-dasharray="9.16667 6.875" fill="none" fill-rule="evenodd"/><path d="M633 1311 1333.63 1311" stroke="#000000" stroke-width="2.29167" stroke-miterlimit="8" stroke-dasharray="9.16667 6.875" fill="none" fill-rule="evenodd"/><path d="M633 1520 910.427 1520" stroke="#000000" stroke-width="2.29167" stroke-miterlimit="8" stroke-dasharray="9.16667 6.875" fill="none" fill-rule="evenodd"/><path d="M633 1933 1037.23 1933" stroke="#000000" stroke-width="2.29167" stroke-miterlimit="8" stroke-dasharray="9.16667 6.875" fill="none" fill-rule="evenodd"/><path d="M789 2268 1281.76 2268" stroke="#000000" stroke-width="2.29167" stroke-miterlimit="8" stroke-dasharray="9.16667 6.875" fill="none" fill-rule="evenodd"/><path d="M1828.5 332.062 2132.89 332.063 2132.89 338.938 1828.5 338.938ZM2128.31 321.75 2155.81 335.5 2128.31 349.25Z" fill="#7F7F7F"/><path d="M1846.5 619.063 2406.13 619.063 2406.13 878.286 2399.25 878.286 2399.25 622.5 2402.69 625.938 1846.5 625.938ZM2416.44 873.702 2402.69 901.202 2388.94 873.702Z" fill="#7F7F7F"/><path d="M114 896.668C114 881.94 125.94 870 140.668 870L606.332 870C621.06 870 633 881.94 633 896.668L633 1003.33C633 1018.06 621.06 1030 606.332 1030L140.668 1030C125.94 1030 114 1018.06 114 1003.33Z" fill="#E2F0D9" fill-rule="evenodd"/><text font-family="Mangal Pro,Mangal Pro_MSFontService,sans-serif" font-weight="700" font-size="46" transform="matrix(1 0 0 1 270.723 928)">Standard </text><text font-family="Mangal Pro,Mangal Pro_MSFontService,sans-serif" font-weight="700" font-size="46" transform="matrix(1 0 0 1 256.125 986)">databases</text><path d="M795 846.178C795 832.273 806.273 821 820.179 821L1820.82 821C1834.73 821 1846 832.273 1846 846.178L1846 1053.82C1846 1067.73 1834.73 1079 1820.82 1079L820.179 1079C806.273 1079 795 1067.73 795 1053.82Z" stroke="#000000" stroke-width="2.29167" stroke-miterlimit="8" stroke-dasharray="9.16667 6.875" fill="none" fill-rule="evenodd"/><path d="M633 950 794.972 950" stroke="#000000" stroke-width="2.29167" stroke-miterlimit="8" stroke-dasharray="9.16667 6.875" fill="none" fill-rule="evenodd"/><path d="M2406 999.5 2406 1126.08 1317.5 1126.08 1320.94 1122.65 1320.94 1222.88 1314.06 1222.88 1314.06 1119.21 2402.56 1119.21 2399.12 1122.65 2399.12 999.5ZM1331.25 1218.29 1317.5 1245.79 1303.75 1218.29Z" fill="#7F7F7F"/><path d="M1846.5 1454.06 2132.92 1454.06 2132.92 1460.94 1846.5 1460.94ZM2128.34 1443.75 2155.84 1457.5 2128.34 1471.25Z" fill="#7F7F7F"/><path d="M2406.24 384.5 2406.24 435.596 1575.5 435.596 1578.94 432.158 1578.94 456.898 1572.06 456.898 1572.06 428.721 2402.8 428.721 2399.36 432.158 2399.36 384.5ZM1589.25 452.315 1575.5 479.815 1561.75 452.315Z" fill="#7F7F7F"/><path d="M1304 506.911C1304 491.496 1316.5 479 1331.91 479L1818.09 479C1833.5 479 1846 491.496 1846 506.911L1846 737.089C1846 752.504 1833.5 765 1818.09 765L1331.91 765C1316.5 765 1304 752.504 1304 737.089Z" stroke="#000000" stroke-width="2.29167" stroke-miterlimit="8" stroke-dasharray="9.16667 6.875" fill="none" fill-rule="evenodd"/><path d="M788 1274.58C788 1258.8 800.797 1246 816.582 1246L1817.42 1246C1833.2 1246 1846 1258.8 1846 1274.58L1846 1639.42C1846 1655.2 1833.2 1668 1817.42 1668L816.582 1668C800.797 1668 788 1655.2 788 1639.42Z" stroke="#000000" stroke-width="2.29167" stroke-miterlimit="8" stroke-dasharray="9.16667 6.875" fill="none" fill-rule="evenodd"/><path d="M2406.15 1506.5 2406.15 1698.95 1433.5 1698.95 1436.94 1695.51 1436.94 1861.6 1430.06 1861.6 1430.06 1692.07 2402.71 1692.07 2399.27 1695.51 2399.27 1506.5ZM1447.25 1857.02 1433.5 1884.52 1419.75 1857.02Z" fill="#7F7F7F"/><path d="M1828.5 1930.06 2132.89 1930.06 2132.89 1936.94 1828.5 1936.94ZM2128.31 1919.75 2155.81 1933.5 2128.31 1947.25Z" fill="#7F7F7F"/><path d="M2405.93 1982.5 2405.93 2104.06 1555.5 2104.06 1558.94 2100.63 1558.94 2195.83 1552.06 2195.83 1552.06 2097.19 2402.49 2097.19 2399.05 2100.63 2399.05 1982.5ZM1569.25 2191.25 1555.5 2218.75 1541.75 2191.25Z" fill="#7F7F7F"/><path d="M1828.5 2265.06 2132.89 2265.06 2132.89 2271.94 1828.5 2271.94ZM2128.31 2254.75 2155.81 2268.5 2128.31 2282.25Z" fill="#7F7F7F"/><path d="M2874 436.334C2874 427.313 2881.31 420 2890.33 420L2973.67 420C2982.69 420 2990 427.313 2990 436.334L2990 501.666C2990 510.687 2982.69 518 2973.67 518L2890.33 518C2881.31 518 2874 510.687 2874 501.666Z" fill="#FBE5D6" fill-rule="evenodd"/><path d="M2874 570.5C2874 561.388 2881.39 554 2890.5 554L2973.5 554C2982.61 554 2990 561.388 2990 570.5L2990 636.5C2990 645.613 2982.61 653 2973.5 653L2890.5 653C2881.39 653 2874 645.613 2874 636.5Z" fill="#DEEBF7" fill-rule="evenodd"/><path d="M2874 705.333C2874 696.313 2881.31 689 2890.33 689L2973.67 689C2982.69 689 2990 696.313 2990 705.333L2990 770.666C2990 779.687 2982.69 787 2973.67 787L2890.33 787C2881.31 787 2874 779.687 2874 770.666Z" fill="#E2F0D9" fill-rule="evenodd"/><path d="M1.11087e-05-3.4375 88.7582-3.43721 88.7582 3.43779-1.11087e-05 3.4375ZM84.1749-13.7497 111.675 0.000360892 84.1749 13.7503Z" fill="#7F7F7F" transform="matrix(1 0 0 -1 2874.5 872.5)"/><text font-family="Mangal Pro,Mangal Pro_MSFontService,sans-serif" font-weight="700" font-size="46" transform="matrix(1 0 0 1 3023.79 880)">Process</text><text font-family="Mangal Pro,Mangal Pro_MSFontService,sans-serif" font-weight="700" font-size="46" transform="matrix(1 0 0 1 3022.06 344)">R code</text><path d="M2873 302.334C2873 293.313 2880.31 286 2889.33 286L2971.67 286C2980.69 286 2988 293.313 2988 302.334L2988 367.666C2988 376.687 2980.69 384 2971.67 384L2889.33 384C2880.31 384 2873 376.687 2873 367.666Z" fill="#DBDBDB" fill-rule="evenodd"/><path d="M1846.5 947.062 2132.92 947.063 2132.92 953.938 1846.5 953.937ZM2128.34 936.75 2155.84 950.5 2128.34 964.25Z" fill="#7F7F7F"/></g></svg>